<svg id="ejdtH7VLGiU1" xmlns="http://www.w3.org/2000/svg" xmlns:xlink="http://www.w3.org/1999/xlink" viewBox="0 0 60 60" shape-rendering="geometricPrecision" text-rendering="geometricPrecision"><style><![CDATA[#ejdtH7VLGiU2_tr {animation: ejdtH7VLGiU2_tr__tr 4000ms linear infinite normal forwards}@keyframes ejdtH7VLGiU2_tr__tr { 0% {transform: translate(30.000001px,26.384452px) rotate(0deg);animation-timing-function: cubic-bezier(0.25,0.46,0.45,0.94)} 50% {transform: translate(30.000001px,26.384452px) rotate(360deg)} 100% {transform: translate(30.000001px,26.384452px) rotate(360deg)}} #ejdtH7VLGiU7 {animation: ejdtH7VLGiU7_s_do 4000ms linear infinite normal forwards}@keyframes ejdtH7VLGiU7_s_do { 0% {stroke-dashoffset: 0} 40% {stroke-dashoffset: 0} 50% {stroke-dashoffset: 80} 100% {stroke-dashoffset: 80}} #ejdtH7VLGiU8 {animation: ejdtH7VLGiU8_s_do 4000ms linear infinite normal forwards}@keyframes ejdtH7VLGiU8_s_do { 0% {stroke-dashoffset: 0} 40% {stroke-dashoffset: 0} 50% {stroke-dashoffset: 80} 100% {stroke-dashoffset: 80}} #ejdtH7VLGiU9_to {animation: ejdtH7VLGiU9_to__to 4000ms linear infinite normal forwards}@keyframes ejdtH7VLGiU9_to__to { 0% {transform: translate(29.999802px,50.040349px)} 40% {transform: translate(29.999802px,50.040349px);animation-timing-function: cubic-bezier(0.25,0.46,0.45,0.94)} 65% {transform: translate(29.999802px,39.03975px)} 100% {transform: translate(29.999802px,39.03975px)}} #ejdtH7VLGiU9 {animation: ejdtH7VLGiU9_c_o 4000ms linear infinite normal forwards}@keyframes ejdtH7VLGiU9_c_o { 0% {opacity: 0} 40% {opacity: 0} 65% {opacity: 1} 100% {opacity: 1}} #ejdtH7VLGiU12_to {animation: ejdtH7VLGiU12_to__to 4000ms linear infinite normal forwards}@keyframes ejdtH7VLGiU12_to__to { 0% {transform: translate(53.841099px,38.93855px)} 40% {transform: translate(53.841099px,38.93855px)} 55% {transform: translate(43.841099px,38.93855px)} 100% {transform: translate(43.841099px,38.93855px)}} #ejdtH7VLGiU15_to {animation: ejdtH7VLGiU15_to__to 4000ms linear infinite normal forwards}@keyframes ejdtH7VLGiU15_to__to { 0% {transform: translate(6.1586px,38.886799px)} 40% {transform: translate(6.1586px,38.886799px)} 55% {transform: translate(16.1586px,38.886799px)} 100% {transform: translate(16.1586px,38.886799px)}}]]></style><g id="ejdtH7VLGiU2_tr" transform="translate(30.000001,26.384452) rotate(0)"><g transform="translate(-30.000001,-26.384452)"><g transform="translate(-.051051 0.000001)"><path d="M22.2368,26.7312c0-.2043,0-.3064,0-.5107c0-4.2903,3.4731-7.7635,7.7635-7.7635c4.2903,0,7.7634,3.4732,7.7634,7.7635" fill="none" stroke="#04bbf2" stroke-width="2" stroke-linecap="round" stroke-linejoin="round" stroke-miterlimit="10" stroke-dasharray="80"/><path d="M45.3226,26.2205v-3.0646h-3.1667c-.3064-1.2258-.8172-2.3494-1.4301-3.3709l2.2473-2.1452-4.2903-4.2903-2.2473,2.2473c-1.0215-.6129-2.1452-1.1237-3.371-1.4301v-3.1667h-6.0269v3.1667c-1.2258.3064-2.3494.8172-3.371,1.4301l-2.2473-2.2473-4.2903,4.2903l2.2473,2.2473c-.6129,1.0215-1.1236,2.1452-1.4301,3.371h-3.1667v3.7796" fill="none" stroke="#04bbf2" stroke-width="2" stroke-linecap="round" stroke-linejoin="round" stroke-miterlimit="10" stroke-dasharray="80"/></g><g transform="matrix(1 0 0-1-.051051 52.768902)"><path id="ejdtH7VLGiU7" d="M22.2368,26.7312c0-.2043,0-.3064,0-.5107c0-4.2903,3.4731-7.7635,7.7635-7.7635c4.2903,0,7.7634,3.4732,7.7634,7.7635" fill="none" stroke="#04bbf2" stroke-width="2" stroke-linecap="round" stroke-linejoin="round" stroke-miterlimit="10" stroke-dasharray="80"/><path id="ejdtH7VLGiU8" d="M45.3226,26.2205v-3.0646h-3.1667c-.3064-1.2258-.8172-2.3494-1.4301-3.3709l2.2473-2.1452-4.2903-4.2903-2.2473,2.2473c-1.0215-.6129-2.1452-1.1237-3.371-1.4301v-3.1667h-6.0269v3.1667c-1.2258.3064-2.3494.8172-3.371,1.4301l-2.2473-2.2473-4.2903,4.2903l2.2473,2.2473c-.6129,1.0215-1.1236,2.1452-1.4301,3.371h-3.1667v3.7796" fill="none" stroke="#04bbf2" stroke-width="2" stroke-linecap="round" stroke-linejoin="round" stroke-miterlimit="10" stroke-dasharray="80"/></g></g></g><g id="ejdtH7VLGiU9_to" transform="translate(29.999802,50.040349)"><g id="ejdtH7VLGiU9" transform="translate(-29.999801,-39.03975)" opacity="0"><path d="M29.4894,37.4564c2.3131,0,4.1882-1.8751,4.1882-4.1881c0-2.3131-1.8751-4.1882-4.1882-4.1882s-4.1881,1.8751-4.1881,4.1882c0,2.313,1.8751,4.1881,4.1881,4.1881Z" fill="none" stroke="#10385b" stroke-width="2" stroke-linecap="round" stroke-linejoin="round" stroke-miterlimit="10"/><path d="M20.0913,48.9994c0-5.2097,4.1882-9.3978,9.3979-9.3978s9.3978,4.1881,9.3978,9.3978" fill="none" stroke="#10385b" stroke-width="2" stroke-linecap="round" stroke-linejoin="round" stroke-miterlimit="10"/><g id="ejdtH7VLGiU12_to" transform="translate(53.841099,38.93855)"><g transform="translate(-43.841098,-38.93855)"><path d="M41.8493,37.6615c1.7489,0,3.1667-1.4178,3.1667-3.1667s-1.4178-3.1667-3.1667-3.1667-3.1667,1.4178-3.1667,3.1667s1.4178,3.1667,3.1667,3.1667Z" fill="none" stroke="#10385b" stroke-width="2" stroke-linecap="round" stroke-linejoin="round" stroke-miterlimit="10"/><path d="M38.8867,40.0113c.9194-.4086,1.9409-.6129,2.9624-.6129c3.9839,0,7.1505,3.1667,7.1505,7.1506" fill="none" stroke="#10385b" stroke-width="2" stroke-linecap="round" stroke-linejoin="round" stroke-miterlimit="10"/></g></g><g id="ejdtH7VLGiU15_to" transform="translate(6.1586,38.886799)"><g transform="translate(-16.1586,-38.886799)"><path d="M18.1506,37.6615c1.7489,0,3.1666-1.4178,3.1666-3.1667s-1.4177-3.1667-3.1666-3.1667-3.1667,1.4178-3.1667,3.1667s1.4178,3.1667,3.1667,3.1667Z" fill="none" stroke="#10385b" stroke-width="2" stroke-linecap="round" stroke-linejoin="round" stroke-miterlimit="10"/><path d="M11,46.4455c0-3.9839,3.1667-7.1506,7.1505-7.1506c1.0216,0,1.9409.2043,2.7581.5108" fill="none" stroke="#10385b" stroke-width="2" stroke-linecap="round" stroke-linejoin="round" stroke-miterlimit="10"/></g></g></g></g></svg>