<svg id="eS2YTogjJt61" xmlns="http://www.w3.org/2000/svg" xmlns:xlink="http://www.w3.org/1999/xlink" viewBox="0 0 60 60" shape-rendering="geometricPrecision" text-rendering="geometricPrecision"><style><![CDATA[#eS2YTogjJt62_tr {animation: eS2YTogjJt62_tr__tr 3000ms linear infinite normal forwards}@keyframes eS2YTogjJt62_tr__tr { 0% {transform: translate(33.25015px,32.000099px) rotate(0deg)} 53.333333% {transform: translate(33.25015px,32.000099px) rotate(0deg)} 56.666667% {transform: translate(33.25015px,32.000099px) rotate(4.270991deg)} 63.333333% {transform: translate(33.25015px,32.000099px) rotate(-0.037094deg)} 100% {transform: translate(33.25015px,32.000099px) rotate(-0.037094deg)}} #eS2YTogjJt63 {animation: eS2YTogjJt63_s_do 3000ms linear infinite normal forwards}@keyframes eS2YTogjJt63_s_do { 0% {stroke-dashoffset: 38.250836} 23.333333% {stroke-dashoffset: 38.250836} 36.666667% {stroke-dashoffset: 0} 100% {stroke-dashoffset: 0}} #eS2YTogjJt64 {animation: eS2YTogjJt64_s_do 3000ms linear infinite normal forwards}@keyframes eS2YTogjJt64_s_do { 0% {stroke-dashoffset: 78.869542} 23.333333% {stroke-dashoffset: 0} 100% {stroke-dashoffset: 0}} #eS2YTogjJt66 {animation: eS2YTogjJt66_c_o 3000ms linear infinite normal forwards}@keyframes eS2YTogjJt66_c_o { 0% {opacity: 0} 36.666667% {opacity: 0} 40% {opacity: 1} 100% {opacity: 1}} #eS2YTogjJt67 {animation: eS2YTogjJt67_s_do 3000ms linear infinite normal forwards}@keyframes eS2YTogjJt67_s_do { 0% {stroke-dashoffset: 27} 40% {stroke-dashoffset: 27} 50% {stroke-dashoffset: 0} 100% {stroke-dashoffset: 0}}]]></style><g id="eS2YTogjJt62_tr" transform="translate(33.25015,32.000099) rotate(0)"><g transform="translate(-33.25015,-32.000099)"><path id="eS2YTogjJt63" d="M23.25,24.1739c3.3618,0,6.087-2.7252,6.087-6.0869c0-3.3618-2.7252-6.087-6.087-6.087s-6.0869,2.7252-6.0869,6.087s2.7252,6.0869,6.0869,6.0869Z" fill="none" stroke="#11385a" stroke-width="2" stroke-linecap="round" stroke-linejoin="round" stroke-dashoffset="38.250836" stroke-dasharray="38.250836"/><path id="eS2YTogjJt64" d="M32.815,27.6523h-19.1304c0,7.0783,2.8521,11.2,6.0869,13.0435v11.3044h6.9565v-11.3044c3.2348-1.8435,6.087-5.9652,6.087-13.0435Z" fill="none" stroke="#11385a" stroke-width="2" stroke-linecap="round" stroke-linejoin="round" stroke-dashoffset="78.869542" stroke-dasharray="78.869542"/><path d="M24.1194,27.6523h-1.7391l-.8696,10.4348l1.7392,1.7392l1.7391-1.7392-.8696-10.4348Z" fill="none" stroke="#11385a" stroke-width="2" stroke-linecap="round" stroke-linejoin="round"/><path id="eS2YTogjJt66" d="M33.8574,16.2435c1.4131-1.2087,3.1235-2.0178,4.9542-2.3437c1.8308-.3259,3.7153-.1567,5.4587.4902s3.2822,1.7479,4.4573,3.1891s1.9437,3.1701,2.2263,5.0081.069,3.7179-.6188,5.4456c-.6878,1.7276-1.8248,3.2402-3.2933,4.3809s-3.2152,1.8683-5.0592,2.1075-3.7186-.0187-5.4295-.7471" opacity="0" fill="none" stroke="#04bbf2" stroke-width="2" stroke-linecap="round" stroke-linejoin="round"/><path id="eS2YTogjJt67" d="M52.8157,12L40.8331,27.9479L36.207,23.3218" fill="none" stroke="#04bbf2" stroke-width="2" stroke-linecap="round" stroke-linejoin="round" stroke-dashoffset="27" stroke-dasharray="27"/></g></g></svg>