<svg width="52" height="52" viewBox="0 0 52 52" fill="none" xmlns="http://www.w3.org/2000/svg">
<circle cx="26" cy="26" r="26" fill="#2B98F7" fill-opacity="0.15"/>
<path d="M28.6718 39.4029C28.1619 39.2998 27.6476 39.2171 27.1438 39.0903C25.9312 38.7839 24.7858 38.2922 23.6746 37.7283C22.2078 36.9831 20.6749 36.4639 19.0406 36.2561C19.0147 36.2527 18.9904 36.2379 18.9474 36.2219C18.943 36.137 18.9353 36.0477 18.9353 35.959C18.9348 33.7315 18.937 31.5041 18.9309 29.2767C18.9309 29.0871 18.9805 28.9906 19.1641 28.9129C20.2626 28.4488 21.3755 28.042 22.5584 27.8386C23.9854 27.5933 25.3083 27.8463 26.5408 28.5971C27.1979 28.9972 27.8466 29.4112 28.5141 29.7926C29.8249 30.5417 31.2553 30.9094 32.7479 31.0428C33.4226 31.1034 34.1011 31.1238 34.7786 31.1536C35.6506 31.1921 36.2464 31.7863 36.3021 32.6854C36.3556 33.5375 35.8148 34.2932 35.0029 34.3952C34.4997 34.458 33.9788 34.4365 33.4711 34.393C31.8644 34.2546 30.2659 34.0507 28.7043 33.6263C28.5632 33.5877 28.4271 33.5326 28.2865 33.4907C27.813 33.3496 27.3494 33.5915 27.2166 34.0463C27.0876 34.4872 27.3423 34.9271 27.8158 35.0621C30.2774 35.7644 32.7727 36.2224 35.3491 36.0912C35.391 36.089 35.4329 36.0968 35.569 36.1061C35.0784 36.557 34.6568 36.9699 34.2086 37.3518C33.1503 38.2531 31.9884 38.9685 30.606 39.2607C30.348 39.3152 30.0873 39.3566 29.8277 39.4045H28.6723L28.6718 39.4029Z" fill="#2B98F7"/>
<path d="M40.4443 30.1074C39.9852 30.7203 39.5332 31.3388 39.0647 31.9446C38.7086 32.4054 38.3315 32.8502 37.9126 33.3645C38.0708 31.8906 37.6084 30.7639 36.4045 29.9591C36.9243 29.3975 37.5477 29.0408 38.2869 28.967C38.7229 28.9234 39.1754 28.9912 39.6148 29.0513C40.0094 29.1053 40.301 29.3341 40.4438 29.7227V30.108L40.4443 30.1074Z" fill="#2B98F7"/>
<path d="M28.3826 19.5709C26.6093 19.2716 25.3934 17.7426 25.5439 16.0306C25.6938 14.3279 27.117 13.0083 28.8125 13C30.5411 12.9918 31.9803 14.3086 32.1302 16.0366C32.2785 17.7459 31.0769 19.2529 29.3042 19.6051C29.4734 19.6371 29.6432 19.668 29.8124 19.7016C32.0977 20.158 33.7596 22.1588 33.7871 24.4882C33.7904 24.7815 33.7943 25.0747 33.7866 25.368C33.7739 25.8508 33.4311 26.1986 32.9454 26.1992C30.2049 26.2036 27.4648 26.203 24.7242 26.1992C24.2844 26.1986 23.92 25.8927 23.8963 25.4727C23.8329 24.3455 23.898 23.2353 24.4723 22.2195C25.2964 20.7615 26.5283 19.8934 28.1913 19.6481C28.2365 19.6415 28.2817 19.6327 28.3252 19.62C28.3407 19.6156 28.3523 19.598 28.3826 19.572V19.5709Z" fill="#2B98F7"/>
<path d="M17.284 29.5252C17.284 30.5697 17.284 31.5955 17.284 32.6213C17.284 34.0142 17.2846 35.4076 17.284 36.8005C17.284 37.4267 16.961 37.7508 16.3392 37.7519C15.2942 37.753 14.2496 37.7535 13.2045 37.7519C12.6142 37.7508 12.2796 37.4212 12.2791 36.8369C12.2774 34.6922 12.2774 32.548 12.2791 30.4032C12.2791 29.8724 12.6076 29.507 13.1081 29.5048C14.4646 29.4976 15.8211 29.5026 17.1776 29.5037C17.2035 29.5037 17.2289 29.5141 17.2846 29.5257L17.284 29.5252Z" fill="#2B98F7"/>
</svg>
