<svg width="52" height="52" viewBox="0 0 52 52" fill="none" xmlns="http://www.w3.org/2000/svg">
<circle cx="26" cy="26" r="26" fill="#2B98F7" fill-opacity="0.15"/>
<path d="M43.332 28.8996C43.2445 29.2232 43.1746 29.5529 43.0675 29.8697C42.4475 31.6984 40.774 32.9574 38.8462 33.0415C38.3279 33.0639 37.8083 33.0551 37.2894 33.0504C36.5805 33.0436 36.162 32.6196 36.1613 31.9026C36.1586 29.0258 36.1613 26.1497 36.16 23.2729C36.1593 22.0444 36.2041 20.8153 35.947 19.599C35.0523 15.3594 31.4937 12.1156 27.1877 11.6279C22.1076 11.052 17.4563 14.2144 16.181 19.1656C15.9558 20.0392 15.8656 20.9679 15.8554 21.8728C15.8181 25.1661 15.8405 28.4601 15.8405 31.7541C15.8405 32.6061 15.5861 32.9676 14.7558 33.0538C12.7731 33.2593 10.9721 32.8849 9.65817 31.2168C9.00154 30.3838 8.67933 29.4226 8.67119 28.3624C8.66373 27.3924 8.66509 26.4224 8.67051 25.4524C8.68476 22.8625 10.7143 20.7949 13.3096 20.7223C13.4324 20.7189 13.5552 20.7223 13.6956 20.7223C14.0985 16.9148 15.8012 13.863 18.9018 11.6442C21.2292 9.97685 23.8564 9.25917 26.7128 9.40773C33.0546 9.73808 37.9827 14.9382 38.3076 20.6864C38.6929 20.7257 39.087 20.7352 39.4682 20.8098C41.4761 21.2006 42.9392 22.7126 43.2716 24.715C43.2825 24.7801 43.3117 24.8419 43.3327 24.9049V28.899L43.332 28.8996Z" fill="#2B98F7"/>
<path d="M25.9922 42.0422C25.5412 42.0422 25.0901 42.0503 24.6396 42.0402C23.4485 42.013 22.5232 41.0864 22.5009 39.9061C22.4792 38.7496 23.4017 37.7572 24.5881 37.7171C25.5337 37.6853 26.4827 37.6826 27.4283 37.7185C28.6133 37.7633 29.5331 38.7699 29.4992 39.9224C29.464 41.1075 28.5435 42.0164 27.3448 42.0408C26.8938 42.0503 26.4427 42.0422 25.9922 42.0422Z" fill="#2B98F7"/>
<path d="M21.324 40.452C16.8681 40.8712 13.6955 37.5861 13.2661 34.3301H14.4322C15.4517 37.7692 17.758 39.3816 21.322 39.2806C21.3078 39.4854 21.2847 39.6726 21.2847 39.8605C21.2847 40.0511 21.3091 40.2424 21.324 40.4527V40.452Z" fill="#2B98F7"/>
</svg>
