<svg width="52" height="52" viewBox="0 0 52 52" fill="none" xmlns="http://www.w3.org/2000/svg">
<circle cx="26" cy="26" r="26" fill="#2B98F7" fill-opacity="0.15"/>
<path d="M25.4767 13.9537C25.8519 13.2425 26.8704 13.2425 27.2456 13.9537L30.4363 20.0011C30.581 20.2753 30.8447 20.4669 31.1502 20.5198L37.8876 21.6855C38.6799 21.8226 38.9946 22.7913 38.4342 23.3679L33.6688 28.2711C33.4527 28.4935 33.3519 28.8035 33.3961 29.1104L34.3693 35.8783C34.4838 36.6742 33.6598 37.2728 32.9383 36.918L26.8024 33.901C26.5242 33.7642 26.1982 33.7642 25.9199 33.901L19.7841 36.918C19.0625 37.2728 18.2385 36.6742 18.353 35.8783L19.3263 29.1104C19.3704 28.8035 19.2697 28.4935 19.0536 28.2711L14.2881 23.3679C13.7277 22.7913 14.0424 21.8226 14.8347 21.6855L21.5721 20.5198C21.8776 20.4669 22.1414 20.2753 22.2861 20.0011L25.4767 13.9537Z" fill="#2B98F7"/>
</svg>
